<?xml version="1.0" encoding="UTF-8"?>
<svg id="Ebene_2" data-name="Ebene 2" xmlns="http://www.w3.org/2000/svg" viewBox="0 0 180.2 177.7">
  <g id="Ebene_1-2" data-name="Ebene 1">
    <g>
      <path d="M86,37.8c61-4.6,76.9,83.4,18.4,99.4C31,157.4,12.5,43.4,86,37.8ZM82.9,49.8c-55,7.5-34.6,97.1,22.2,75.2,42.3-16.3,26.4-81.9-22.2-75.2Z"/>
      <path d="M24.4,24.8l6.7-.7c3.5,4.4,20,15.9,20,21s-4.9,6.8-8.9,5-15-14-16.4-15.6c-2.7-3.1-3.7-5.9-1.4-9.7Z"/>
      <path d="M154.9,24.8c5.7,5.4-5.1,14.1-9.2,17.8s-8.7,7.6-9.2,7.8c-7,2.1-9.4-4.5-5.7-9.7,5.6-2.4,13.1-14.5,17.5-16.6s5.2-.7,6.7.8Z"/>
      <path d="M131.9,127.7c2.5-.7,4.2,0,6.2,1.4s14.5,13.2,16.1,14.9c4.8,5.5-.6,12.5-6,10s-17-15.5-18-17c-2.4-3.3-3.1-8,1.7-9.3Z"/>
      <path d="M42.9,127.7c5-1.5,9.6,2.7,7.2,7.1s-18.5,19.1-20.6,19.5-2.2.3-3.2-.3c-3-1.9-4.1-5.1-2.5-8.5s17.9-17.4,19.2-17.8Z"/>
      <path d="M93.9,176.3c-2.9,2.9-8.9.9-9.7-3.3s-.6-20.8,0-23.9c1.1-6,9.8-6.1,10.9,0s.4,25.6-1.2,27.2Z"/>
      <path d="M85.4,31.3c-1.7-1.7-1.7-22.7-1.2-26.2,1.1-7,9.9-6.3,10.9-1s.6,20.9,0,24-6.8,6.2-9.7,3.3Z"/>
      <path d="M30.9,83.8c2.9,2.9.9,8.9-3.3,9.7s-19.9.6-22.9,0c-5.5-1-6.7-9.9-1-10.9s25.6-.4,27.2,1.2Z"/>
      <path d="M149.7,93.5l-2-2c-4-12.2,11.4-7.9,19-7.9s6.5-2.4,10.8,0,2.4,9.9.1,9.9h-28Z"/>
    </g>
  </g>
</svg>