<?xml version="1.0" encoding="UTF-8"?>
<svg id="Ebene_2" data-name="Ebene 2" xmlns="http://www.w3.org/2000/svg" viewBox="0 0 150 164.4">
  <g id="Ebene_1-2" data-name="Ebene 1">
    <path d="M148.7,120.6c4.2,4.2-3.3,12.3-6.2,15.8-34.4,40.3-96,36.3-126.9-6.1C-13.9,89.9,0,30.8,44.7,8.5c7.2-3.6,30.4-11.1,37.3-7.7s-3.7,12.2-6,15c-36.5,46.1-4.5,111.9,54.5,106.5,4.7-.4,15-5,18.3-1.7ZM125,135.4c-56.3.8-93.9-58.7-70.2-109.7,1.6-3.4,3.8-6,5.2-9.3C-30.2,53,23.6,184,114,142.9l11-7.5Z"/>
    <path d="M119.9,17.5c1.3,4.7,1.7,8.6,6.4,11.1s6.3.4,6.8,4.3c0,3.1-7.3,4.6-9.6,7.4s-1.9,8.4-5.9,8.1-4.3-5.7-8.6-8.5-10-2.4-10-6.1,9.2-3.7,12.1-7,.3-11.3,8.9-9.4Z"/>
    <path d="M98.6,61.4l3.5.4c1.4,7.5,5.9,7.4,10.3,10.7s-2.1,5.2-4.4,7.3-5.8,10.1-10,7.1-1.4-4.4-2.9-6.1c-2.4-2.7-7.3-1.9-8.1-6,0-3.4,6.5-3.2,8.5-5.5s.8-7.1,3.1-7.9Z"/>
  </g>
</svg>