<?xml version="1.0" encoding="UTF-8"?>
<svg id="Ebene_2" data-name="Ebene 2" xmlns="http://www.w3.org/2000/svg" viewBox="0 0 193.6 128.1">
  <g id="Ebene_1-2" data-name="Ebene 1">
    <path d="M152.4,45.3c18.7-3.1,38.3,14.6,40.7,32.8,3.7,27.1-14.5,47.3-41.2,49.3-35.8,2.6-74.8-1.9-110.9-.2C5.2,123.5-12.8,82.2,10.4,53.8s24.7-18.9,39-15.5c15-54.4,95.7-49.7,103,7ZM95.2,11.5c-14.4,1.7-28.9,12.3-34,26-1.1,2.9-1.9,11.1-3.8,12.2-10.5.3-17.3-2.3-27.3,2.7-29.5,14.6-22,59.2,10.8,62.9,36.6-2.7,78.1,3.5,114,0,33.1-3.3,36.2-49.9,7.1-58-5.8-1.6-16,.7-18.5-1.5s-2.5-12-3.7-16.3c-5.4-18.8-25.6-30.1-44.5-27.9Z"/>
  </g>
</svg>