<?xml version="1.0" encoding="UTF-8"?>
<svg id="Ebene_2" data-name="Ebene 2" xmlns="http://www.w3.org/2000/svg" viewBox="0 0 175.7 133.7">
  <g id="Ebene_1-2" data-name="Ebene 1">
    <g>
      <path d="M32.8,40.6C41.8-6.3,107.4-15.4,127.9,28.3c7.5-.5,12.5-1.1,19.8,1.2,41.1,12.7,34.5,75.1-4.4,80.2-16.6,2.2-42.5,0-59.9,0-16.9,0-36.6,1.4-53.1,0-42.5-3.3-39.3-67.5,2.4-69.1ZM42.7,51.5c-2.5,2.5-7.5.1-11,.5-24.9,2.3-29.3,42.6,0,46.5,33.7-2,72.5,3.6,105.6.1,40.5-4.2,31.5-63.5-3.8-58.8s-9.4,4.4-12.6,2.4-3.2-8.2-4.4-10.6C100,0,52.8,7.4,44.2,42.5s.3,7.2-1.5,9Z"/>
      <path d="M27.4,121.7h113c4.3,3.9,2.8,10-3.1,10.9-34.1-2.2-72.3,3.1-106,.1s-5.7-11-4-11Z"/>
    </g>
  </g>
</svg>