<?xml version="1.0" encoding="UTF-8"?>
<svg id="Ebene_2" data-name="Ebene 2" xmlns="http://www.w3.org/2000/svg" viewBox="0 0 169.9 176">
  <g id="Ebene_1-2" data-name="Ebene 1">
    <g>
      <path d="M81.7,0c20.9-.4,38.8,12.6,47.2,31.3,52.4-1.1,55.4,71.3,4.5,77.5-33.1-1.9-69.2,2.6-102,0-42.7-3.3-41.1-65.1.6-68.5C37.3,17.9,58.4.5,81.7,0ZM76.6,12c-12.8,1.7-24.9,11-30.5,22.5s-2.9,11-5.3,16.7c-7.3.6-11.7,0-18.3,3.7-18.8,10.6-13.7,39.2,7.8,41.8,33.3-2.2,70.2,2.9,103,0,35.6-3.1,31.6-54.3,0-54.1-3.7,0-9.7,3.3-12.5,1.6s-4.4-11.8-6.2-14.8c-7.9-13.3-22.9-19.5-38-17.4Z"/>
      <g>
        <path d="M72.6,149c14.3-3.3,24.1,15.2,11.2,24.2s-30.3-19.9-11.2-24.2Z"/>
        <path d="M49.6,121c17.9-2.6,20.7,24.4,4.7,26.7s-21.4-24.3-4.7-26.7Z"/>
        <path d="M98.6,121c17.8-2.9,21.5,24.2,4.7,26.7-18,2.7-21.2-24-4.7-26.7Z"/>
      </g>
    </g>
  </g>
</svg>