<?xml version="1.0" encoding="UTF-8"?>
<svg id="Ebene_2" data-name="Ebene 2" xmlns="http://www.w3.org/2000/svg" viewBox="0 0 156.1 173.3">
  <g id="Ebene_1-2" data-name="Ebene 1">
    <path d="M14.9,128.8c3.7-5.7-4.1-15.9-6.3-21.8C-6.1,66.3,15.8,20.4,55.8,5.2c5.8-2.2,25.9-7.5,30.7-4.2s-3.7,12.7-6.6,17.2c-27.1,41.3,7.7,96.4,55.6,91.6s13.6-4.4,17.1-3.9c10.8,1.7-6.3,22.9-9.5,26.5s-8.2,7-8.5,7.5c-.9,1.6-1.1,7.1-2,10-4.6,13.8-18.2,20.9-32,22-20.1,1.6-57,1.8-77,0-21-1.8-32.6-25.6-14.8-39.9s5.9-3.1,6.1-3.4ZM68.1,15C33.2,22,12.6,54.6,16.2,89.4s3.9,12.3,4.9,18.6l10.5-10c10.3-7.8,24.6-13.5,37.5-10-2.9-6.3-6.4-12.4-8.3-19.2-5.1-18.4-2.9-37.6,7.3-53.8ZM56.8,99.2c-19.1,2.6-31.3,19-31.2,37.8-1.6,2.8-10.9,1-13,9-1.9,7.1,2.9,13.2,10,14,25.6-1.7,53.8,2.2,79.1,0,21.5-1.8,29-27.1,12-39s-15.2-.2-19.5-1.4-6.7-8.8-9.9-12.1c-6.9-7.1-17.7-9.5-27.3-8.2Z"/>
    <path d="M117.1,36c-4.3,4.8-10.2,7.2-11,14.5-1.5,13.3,9,19.3,21,15.5-2.9,11.2-17.5,13.5-26.5,7-19.1-13.9-6.7-43.6,16.5-37Z"/>
  </g>
</svg>