<?xml version="1.0" encoding="UTF-8"?>
<svg id="Ebene_2" data-name="Ebene 2" xmlns="http://www.w3.org/2000/svg" viewBox="0 0 181.2 169.3">
  <g id="Ebene_1-2" data-name="Ebene 1">
    <g>
      <path d="M172,82.4h-22.5c-2.8,0-5.4-8.9-1.8-11.1s28.5,1,24.3,11.1Z"/>
      <path d="M108.1,51.2c-4.4-9.4,2.8-13.1,10.9-14.9,1.5-2-9.6-16.4-12-18.5-8-7-14.8-7-24.9-4.8-26.3,5.6-43.2,29.7-41.1,56.3,23.6-18,59.5-10.6,70,18,19-5.2,40,5.7,43.1,25.8,36.3,2.4,35.8,52.1.3,55.2-39.1-2.2-81.3,2.9-120,0-40.9-3.1-46.7-51.6-10.5-66.8-1-7.1,6.4-16.7,7-21.9s-2-10.2-2.1-14.9C28.6,28.5,60.8-3.4,97.6.3c11.5,1.2,22.2,12.6,28.3,21.7,1.3,2,5.5,11.3,6.2,11.8,1.9,1.4,7.4,1.2,10,2s13.7,7.5,14,11.1c.2,2.3-1.3,4.1-3.6,4.4h-44.3ZM136.6,103.7c-3.7-3.7-10.9-6.2-16.1-6.1s-9.8,3.4-14.8,3.7c-2.9-.8-5.9-12.1-8.3-15.8-13.1-20.3-46.5-18.1-57.4,3.4-3.8,7.5-3.5,14.3-4.9,22.1-5.8,3.5-11.2,2.3-16.7,7.8-13,13-6,34.6,12.2,37.6h127.7c16.4-5.5,14.8-31.1-3.8-31-4.5,0-9.6,3.7-11.3-3.6s-.3-11.7-6.6-17.9Z"/>
    </g>
  </g>
</svg>