<?xml version="1.0" encoding="UTF-8"?>
<svg id="Ebene_2" data-name="Ebene 2" xmlns="http://www.w3.org/2000/svg" viewBox="0 0 183.3 174.3">
  <g id="Ebene_1-2" data-name="Ebene 1">
    <g>
      <path d="M128.5,31.6c11.5-3.5,25.3,2.9,31.8,12.7s3.2,10,4.7,12.3,5.5,2.9,7.5,4.5c22.1,17.5,7.9,53.8-19.5,54.6-38.9-2.5-81.6,3.2-120,0-42.4-3.6-44.1-61.4-3.6-69.1,4-52.9,79.4-64.5,99.2-14.9ZM39.2,56.4c-6.6,1.9-12.5,1.9-18.3,6.2-15.7,11.7-10.6,36.5,8.4,40.6l125.5.4c13.4-2.6,21-16.3,13.8-28.6s-11.5-6.3-14.7-9.3,1.2-12-6.5-18.5c-10.7-9.2-21.4-.5-26-2.9-2.8-4.2-3.4-9.1-6.2-13.8C97.6.5,49.5,7.7,41.7,41.4s-.8,10.2-2.5,15Z"/>
      <g>
        <path d="M133.7,127.9c2.7-2.4,5.9-.2,7.6,2.3s7.2,22.4,7.2,25.8c-.4,19.8-32,20.6-29.1-3s11.9-23.1,14.3-25.2ZM135.4,146.6c-4.7,2.9-8.8,15,0,12.5,4.3-2.1-.7-8.8,0-12.5Z"/>
        <path d="M54.4,155.6c.9-.6,6.8,6.6,6.6,8.5-3.5,8.4-12.9,10-20.3,5.7-8.7-5.1-7.3-17-3.5-24.9s9.7-15.2,10.8-16.2c2.7-2.6,6.1-2.8,8.3.5,4.9,7.5-12.5,20.1-10.9,28.9s8.6,2.1,9.1-2.5Z"/>
        <path d="M78.7,170.3c-11.4-11.3,7.4-30.4,11.1-41.7,8.8-4.3,8.8,4.4,10.2,10.8s4.4,19.6,2.3,25.8c-3.3,9.6-16.5,12.2-23.7,5.1ZM86.5,162.4c8.3,3.4,5.6-6.8,4.9-11.9-3.5,2.8-5.9,7.3-4.9,11.9Z"/>
      </g>
    </g>
  </g>
</svg>