<?xml version="1.0" encoding="UTF-8"?>
<svg id="Ebene_2" data-name="Ebene 2" xmlns="http://www.w3.org/2000/svg" viewBox="0 0 171.1 163.3">
  <g id="Ebene_1-2" data-name="Ebene 1">
    <g>
      <path d="M127.8,31.3c17.9-5.2,39.5,11.3,42.5,28.9,4.4,25.4-12.5,47.1-38,49.1-33.4,2.6-70.2-1.9-103.9-.1C-12.3,101-7.8,43.3,32.7,40.2,42.6-7.5,110.5-15.6,127.8,31.3ZM77.6,11.6c-14.1,1.6-27.6,12.3-32.3,25.7-1.6,4.6-1.2,9.2-3.9,13.1-8.8,1.6-13.5-.1-21.1,5.9-15.3,12.2-10.7,37.2,8.9,41,33.6-2.2,70.9,2.9,104.1,0,37.4-3.2,32.9-59.6-3.1-55.1-3.4.4-6,3.2-9.5,1.6-1.7-.9-4.3-11-6-14.1-7.3-13.2-22.5-19.9-37.3-18.2Z"/>
      <g>
        <path d="M85.3,114.7c3.9.4,4.4,1.9,5.5,5.2,2.2,6.9,6.1,28.7,2.5,34.4-6.1,9.8-20.9,8.9-24.9-2s.2-11.8,3.7-18.3c2.1-3.9,7.6-13.9,9.9-17.1s1.8-2.1,3.3-2.2ZM83.8,137.3c-3.3,1.8-8.9,11.4-3.3,12.9s3.3-10,3.3-12.9Z"/>
        <path d="M128.5,120.4c3.2-.9,5.9.7,6.9,3.8s3.8,22.7,3.4,26.5c-2,17.2-25.5,16.3-27.7.8s13-22.2,17.4-31.1ZM127.8,141.3c-2.3-.7-1.7.6-2.3,1.3-8.4,9.2,1.1,13.8,2.3,7.2.5-2.9-.9-5.7,0-8.5Z"/>
        <path d="M45.1,119.5c2.8-2.7,6.3-.6,7.3,2.7s3.3,21.8,3.2,24.3c-.7,12.3-16.4,17.3-24.3,7.8-7.6-9.3,3-18.5,8.4-25.7,1.6-2.1,4.3-8,5.4-9.1ZM44.7,148.2l-.4-8.9-5.4,7.5c1.5,2.1,3.5,2.5,5.8,1.4Z"/>
      </g>
    </g>
  </g>
</svg>