<?xml version="1.0" encoding="UTF-8"?>
<svg id="Ebene_2" data-name="Ebene 2" xmlns="http://www.w3.org/2000/svg" viewBox="0 0 170.2 160.5">
  <g id="Ebene_1-2" data-name="Ebene 1">
    <g>
      <path d="M33.3,38.8c12.8-47.8,80.7-53.5,97.2-5.2,48.1-1.3,54.8,64.8,7.4,73.4-34.9-2-73.5,3.1-107.9.1-10.4-.9-19.3-6.5-24.7-15.3-14.2-23.7,1.9-49.8,28-52.9ZM81.3,11.3c-12.9.8-27.5,10.1-33.4,21.7-2.8,5.6-3.2,11.7-5.9,17.1-6.1,1.6-10.8.2-17.1,2.9-20.2,8.6-16.5,40.2,5,42.1,34.1,3,72.5-2.3,107,0,32.5-4.6,26.8-52.5-6-50-3,.2-5.2,2.4-7.8.9s-4.3-11.6-6.9-16.2c-6.7-12.1-21.4-19.2-35-18.4Z"/>
      <path d="M85.5,127c1.9-2.4,11.4-13.4,12.8-5.4s-9.1,11.1-7.8,12.4c5.9-3.1,15,0,9.3,6.9l-7.4.2c-1,.8,11,10.6,3.3,12.8s-6.7-6.8-10.3-8.9l-.2,13.3c-7.7,7.1-7.3-4.7-6.8-10.3-11.4,13.5-15.2,2-4-7l-9.1-.4c-4-7.1,4.7-9.2,10-6.6,1.7-1.7-16.6-14.9-3-15.5l6,6.5c0-5.6-2-14.1,6.6-10.1l.4,12.1Z"/>
      <path d="M135.5,130c1,1.2,6.9-5.3,9.5-1s-7.6,7.6-6.5,9c4.1,1,8,2.3,7.1,7.4-3.9,3.9-6.1-.9-10-1.3l-.4,7.1c-1.1,1.6-5.8,1.5-6.4-.7v-6.4c-1-1-5.4,2.7-6.8,2.8-2.6.2-4-3.4-2.8-5.8s6.2-1.8,5.5-5c-3.2-.5-6.9-2.5-5.9-6.3l3.2-2.6,6.7,3.8.9-8.6,5.6.5.4,7.1Z"/>
      <path d="M38.5,130c.7.8,7.2-4.3,9.6-1.1.8,1.3.6,2.7,0,4.1-1.2,2.5-6.1,2.2-5.5,4.5s7.3,1.6,5.9,6.8c-1.7,6-8.7-1.5-9.9-.3l-.4,7.1-4.9,1-1.7-9.1c-.3-.5-7.9,7.2-9.9,1.3s6.7-6.1,6.9-6.8c.7-2.2-4.4-1.7-6.1-3.9s-1.3-2.4-.8-3.9c3.2-4.9,5.9,0,9.9.3-1.4-10.4,9.1-11.5,7,0Z"/>
    </g>
  </g>
</svg>